<svg xmlns="http://www.w3.org/2000/svg" version="1.1" xmlns:xlink="http://www.w3.org/1999/xlink" xmlns:svgjs="http://svgjs.dev/svgjs" width="1440" height="560" preserveAspectRatio="none" viewBox="0 0 1440 560"><g mask="url(&quot;#SvgjsMask1007&quot;)" fill="none"><path d="M971.1 342.78 a29.84 29.84 0 1 0 59.68 0 a29.84 29.84 0 1 0 -59.68 0z" fill="#e73635"></path><path d="M139.91 92.33a50.95 50.95 0 1 0-79.54-63.71z" stroke="rgba(0, 0, 0, 1)"></path><path d="M979.64 240.25L1012.76 240.25L1012.76 280.32L979.64 280.32z" stroke="rgba(0, 0, 0, 1)"></path><path d="M177.1 79.99 a26 26 0 1 0 52 0 a26 26 0 1 0 -52 0z" fill="rgba(62, 63, 62, 1)"></path><path d="M1430.41 436.47L1457.57 436.47L1457.57 463.63L1430.41 463.63z" fill="#e73635"></path><path d="M896.01 85.19 a9.9 9.9 0 1 0 19.8 0 a9.9 9.9 0 1 0 -19.8 0z" fill="rgba(62, 63, 62, 1)"></path><path d="M493.71 294.11 a32.19 32.19 0 1 0 64.38 0 a32.19 32.19 0 1 0 -64.38 0z" fill="#e73635"></path><path d="M1038.96 54.59L1050.23 54.59L1050.23 55.16L1038.96 55.16z" stroke="rgba(62, 63, 62, 1)"></path><path d="M82.25 296.67 a30.82 30.82 0 1 0 61.64 0 a30.82 30.82 0 1 0 -61.64 0z" stroke="#e73635"></path><path d="M212.22 100.45 a42.9 42.9 0 1 0 85.8 0 a42.9 42.9 0 1 0 -85.8 0z" fill="#e73635"></path><path d="M945.03 55.47 a18.23 18.23 0 1 0 36.46 0 a18.23 18.23 0 1 0 -36.46 0z" fill="#e73635"></path><path d="M584.43 429.17a54.76 54.76 0 1 0-32.03 104.73z" stroke="#e73635"></path><path d="M-31.64 378.17a52.39 52.39 0 1 0 104.76 2.04z" stroke="rgba(0, 0, 0, 1)"></path><path d="M1345.27 146.16 a38.26 38.26 0 1 0 76.52 0 a38.26 38.26 0 1 0 -76.52 0z" stroke="#e73635"></path><path d="M236.56 247.22 a9.76 9.76 0 1 0 19.52 0 a9.76 9.76 0 1 0 -19.52 0z" fill="rgba(62, 63, 62, 1)"></path><path d="M222.85 135.61L230.24 135.61L230.24 143L222.85 143z" fill="rgba(0, 0, 0, 1)"></path><path d="M822.21 245.61L873.74 245.61L873.74 297.14L822.21 297.14z" stroke="#e73635"></path><path d="M1110.93 318.61L1133.34 318.61L1133.34 341.02L1110.93 341.02z" stroke="rgba(62, 63, 62, 1)"></path><path d="M352 267.48L391.14 267.48L391.14 287.55L352 287.55z" fill="rgba(0, 0, 0, 1)"></path><path d="M206.88 289.43 a12.93 12.93 0 1 0 25.86 0 a12.93 12.93 0 1 0 -25.86 0z" fill="#e73635"></path><path d="M530.99 310 a49.53 49.53 0 1 0 99.06 0 a49.53 49.53 0 1 0 -99.06 0z" stroke="rgba(0, 0, 0, 1)"></path><path d="M254.08 89.6L254.52 89.6L254.52 90.04L254.08 90.04z" stroke="rgba(62, 63, 62, 1)"></path><path d="M572.69 16.48a8.32 8.32 0 1 0 0.96-16.61z" stroke="#e73635"></path><path d="M1327.4 112.21L1372.52 112.21L1372.52 124.86L1327.4 124.86z" fill="rgba(62, 63, 62, 1)"></path><path d="M235.33 154.19L246.82 154.19L246.82 165.68L235.33 165.68z" fill="rgba(62, 63, 62, 1)"></path><path d="M796.75 46.3 a27.4 27.4 0 1 0 54.8 0 a27.4 27.4 0 1 0 -54.8 0z" fill="#e73635"></path><path d="M1092.81 436.92L1105.44 436.92L1105.44 437.75L1092.81 437.75z" stroke="rgba(62, 63, 62, 1)"></path><path d="M425.49 426.68a14 14 0 1 0-25.96 10.5z" stroke="rgba(0, 0, 0, 1)"></path><path d="M1268.08 53.99 a5.28 5.28 0 1 0 10.56 0 a5.28 5.28 0 1 0 -10.56 0z" fill="#e73635"></path><path d="M429.31 101.72L477.83 101.72L477.83 150.24L429.31 150.24z" fill="#e73635"></path><path d="M749.17 468.78 a37.69 37.69 0 1 0 75.38 0 a37.69 37.69 0 1 0 -75.38 0z" stroke="rgba(0, 0, 0, 1)"></path><path d="M561.29 511.12L568.6 511.12L568.6 539.75L561.29 539.75z" fill="rgba(0, 0, 0, 1)"></path><path d="M358.35 97.24L411.11 97.24L411.11 150L358.35 150z" stroke="rgba(0, 0, 0, 1)"></path></g><defs><mask id="SvgjsMask1007"><rect width="1440" height="560" fill="#ffffff"></rect></mask></defs></svg>