<svg xmlns="http://www.w3.org/2000/svg" version="1.1" xmlns:xlink="http://www.w3.org/1999/xlink" xmlns:svgjs="http://svgjs.dev/svgjs" width="1440" height="560" preserveAspectRatio="none" viewBox="0 0 1440 560"><g mask="url(&quot;#SvgjsMask1004&quot;)" fill="none"><path d="M0 183.27L10 159.55L20 209.84L30 147.26L40 188.43L50 119.75L60 165.03L70 186.15L80 118.8L90 76.01L100 7.76L110 16.57L120 1.18L130 67.48L140 79.84L150 88.11L160 94.37L170 46.11L180 9.66L190 70.98L200 26.6L210 44.42L220 40.95L230 89.43L240 60.7L250 101.38L260 105.92L270 51.24L280 70.16L290 70.46L300 131.44L310 109.12L320 83.83L330 28.95L340 29.18L350 6.38L360 54.68L370 77.37L380 127.92L390 101.5L400 100.02L410 122.81L420 71.78L430 42.48L440 4.33L450 34.44L460 102.15L470 151.43L480 208.9L490 240.47L500 285.71L510 261.91L520 241.95L530 201.24L540 181.38L550 205.86L560 239.71L570 297.99L580 327.55L590 296.38L600 237.57L610 281.97L620 237.57L630 261.33L640 253.75L650 278.53L660 212.58L670 281.32L680 239.37L690 219.49L700 226L710 199.11L720 221.77L730 172.23L740 144.9L750 138.97L760 123.4L770 109.26L780 151.63L790 107.22L800 60.99L810 122.68L820 168.74L830 104.58L840 52.59L850 15.96L860 17.66L870 26.18L880 22.7L890 6.75L900 70.48L910 113.39L920 47L930 32.48L940 40.69L950 86.76L960 56.96L970 76.74L980 124.08L990 171.15L1000 118.75L1010 138.19L1020 88.57L1030 77.64L1040 43.82L1050 75.21L1060 73.06L1070 88.13L1080 86.95L1090 59.82L1100 30.71L1110 71.56L1120 49.03L1130 37.58L1140 7.39L1150 13.57L1160 77.83L1170 83.35L1180 79.17L1190 28.64L1200 13.48L1210 63.65L1220 91.02L1230 29.25L1240 22.35L1250 34.02L1260 38.21L1270 84.97L1280 78.89L1290 27.86L1300 28.55L1310 48.95L1320 91.95L1330 67.66L1340 105.14L1350 160.28L1360 185.33L1370 249.08L1380 187.91L1390 183.23L1400 124.73L1410 136.88L1420 120.14L1430 138.29L1440 204.61" stroke="rgba(105, 111, 116, 1)" stroke-width="2"></path><path d="M0 183.27L10 159.55L20 209.84L30 147.26L40 188.43L50 119.75L60 165.03L70 186.15L80 118.8L90 76.01L100 7.76L110 16.57L120 1.18L130 67.48L140 79.84L150 88.11L160 94.37L170 46.11L180 9.66L190 70.98L200 26.6L210 44.42L220 40.95L230 89.43L240 60.7L250 101.38L260 105.92L270 51.24L280 70.16L290 70.46L300 131.44L310 109.12L320 83.83L330 28.95L340 29.18L350 6.38L360 54.68L370 77.37L380 127.92L390 101.5L400 100.02L410 122.81L420 71.78L430 42.48L440 4.33L450 34.44L460 102.15L470 151.43L480 208.9L490 240.47L500 285.71L510 261.91L520 241.95L530 201.24L540 181.38L550 205.86L560 239.71L570 297.99L580 327.55L590 296.38L600 237.57L610 281.97L620 237.57L630 261.33L640 253.75L650 278.53L660 212.58L670 281.32L680 239.37L690 219.49L700 226L710 199.11L720 221.77L730 172.23L740 144.9L750 138.97L760 123.4L770 109.26L780 151.63L790 107.22L800 60.99L810 122.68L820 168.74L830 104.58L840 52.59L850 15.96L860 17.66L870 26.18L880 22.7L890 6.75L900 70.48L910 113.39L920 47L930 32.48L940 40.69L950 86.76L960 56.96L970 76.74L980 124.08L990 171.15L1000 118.75L1010 138.19L1020 88.57L1030 77.64L1040 43.82L1050 75.21L1060 73.06L1070 88.13L1080 86.95L1090 59.82L1100 30.71L1110 71.56L1120 49.03L1130 37.58L1140 7.39L1150 13.57L1160 77.83L1170 83.35L1180 79.17L1190 28.64L1200 13.48L1210 63.65L1220 91.02L1230 29.25L1240 22.35L1250 34.02L1260 38.21L1270 84.97L1280 78.89L1290 27.86L1300 28.55L1310 48.95L1320 91.95L1330 67.66L1340 105.14L1350 160.28L1360 185.33L1370 249.08L1380 187.91L1390 183.23L1400 124.73L1410 136.88L1420 120.14L1430 138.29L1440 204.61L1440 560L0 560z" fill="url(&quot;#SvgjsLinearGradient1005&quot;)"></path></g><defs><mask id="SvgjsMask1004"><rect width="1440" height="560" fill="#ffffff"></rect></mask><linearGradient x1="50%" y1="0%" x2="50%" y2="100%" id="SvgjsLinearGradient1005"><stop stop-opacity="0.65" stop-color="rgba(105, 111, 116, 1)" offset="0"></stop><stop stop-opacity="0" stop-color="#cdd0d2" offset="0.8"></stop></linearGradient></defs></svg>