<svg xmlns="http://www.w3.org/2000/svg" version="1.1" xmlns:xlink="http://www.w3.org/1999/xlink" xmlns:svgjs="http://svgjs.dev/svgjs" width="1440" height="560" preserveAspectRatio="none" viewBox="0 0 1440 560"><g mask="url(&quot;#SvgjsMask1006&quot;)" fill="none"><path d="M-57.99 357.46L-57.99 357.46" stroke="rgba(145, 175, 238, 1)" stroke-width="1.5"></path><path d="M-57.99 357.46L75.91 367.82" stroke="rgba(145, 175, 238, 1)" stroke-width="1.5"></path><path d="M-57.99 357.46L-100.76 533.12" stroke="rgba(145, 175, 238, 1)" stroke-width="1.5"></path><path d="M-100.76 533.12L-100.76 533.12" stroke="rgba(145, 175, 238, 1)" stroke-width="1.5"></path><path d="M-100.76 533.12L-92.97 638.81" stroke="rgba(145, 175, 238, 1)" stroke-width="1.5"></path><path d="M-100.76 533.12L48.14 516.58" stroke="rgba(145, 175, 238, 1)" stroke-width="1.5"></path><path d="M-100.76 533.12L75.91 367.82" stroke="rgba(145, 175, 238, 1)" stroke-width="1.5"></path><path d="M-92.97 638.81L-92.97 638.81" stroke="rgba(145, 175, 238, 1)" stroke-width="1.5"></path><path d="M-92.97 638.81L79.65 699.27" stroke="rgba(145, 175, 238, 1)" stroke-width="1.5"></path><path d="M-92.97 638.81L48.14 516.58" stroke="rgba(145, 175, 238, 1)" stroke-width="1.5"></path><path d="M-92.97 638.81L-57.99 357.46" stroke="rgba(145, 175, 238, 1)" stroke-width="1.5"></path><path d="M-92.97 638.81L75.91 367.82" stroke="rgba(145, 175, 238, 1)" stroke-width="1.5"></path><path d="M-92.97 638.81L237.07 682.86" stroke="rgba(145, 175, 238, 1)" stroke-width="1.5"></path><path d="M75.91 367.82L75.91 367.82" stroke="rgba(145, 175, 238, 1)" stroke-width="1.5"></path><path d="M75.91 367.82L48.14 516.58" stroke="rgba(145, 175, 238, 1)" stroke-width="1.5"></path><path d="M75.91 367.82L229.51 338.35" stroke="rgba(145, 175, 238, 1)" stroke-width="1.5"></path><path d="M75.91 367.82L248.6 555.72" stroke="rgba(145, 175, 238, 1)" stroke-width="1.5"></path><path d="M75.91 367.82L338.82 353.89" stroke="rgba(145, 175, 238, 1)" stroke-width="1.5"></path><path d="M48.14 516.58L48.14 516.58" stroke="rgba(145, 175, 238, 1)" stroke-width="1.5"></path><path d="M48.14 516.58L79.65 699.27" stroke="rgba(145, 175, 238, 1)" stroke-width="1.5"></path><path d="M48.14 516.58L-57.99 357.46" stroke="rgba(145, 175, 238, 1)" stroke-width="1.5"></path><path d="M79.65 699.27L79.65 699.27" stroke="rgba(145, 175, 238, 1)" stroke-width="1.5"></path><path d="M79.65 699.27L237.07 682.86" stroke="rgba(145, 175, 238, 1)" stroke-width="1.5"></path><path d="M79.65 699.27L248.6 555.72" stroke="rgba(145, 175, 238, 1)" stroke-width="1.5"></path><path d="M79.65 699.27L-100.76 533.12" stroke="rgba(145, 175, 238, 1)" stroke-width="1.5"></path><path d="M229.51 338.35L229.51 338.35" stroke="rgba(145, 175, 238, 1)" stroke-width="1.5"></path><path d="M229.51 338.35L338.82 353.89" stroke="rgba(145, 175, 238, 1)" stroke-width="1.5"></path><path d="M229.51 338.35L248.6 555.72" stroke="rgba(145, 175, 238, 1)" stroke-width="1.5"></path><path d="M229.51 338.35L48.14 516.58" stroke="rgba(145, 175, 238, 1)" stroke-width="1.5"></path><path d="M248.6 555.72L248.6 555.72" stroke="rgba(145, 175, 238, 1)" stroke-width="1.5"></path><path d="M248.6 555.72L237.07 682.86" stroke="rgba(145, 175, 238, 1)" stroke-width="1.5"></path><path d="M248.6 555.72L353.42 643.24" stroke="rgba(145, 175, 238, 1)" stroke-width="1.5"></path><path d="M248.6 555.72L407.52 535.27" stroke="rgba(145, 175, 238, 1)" stroke-width="1.5"></path><path d="M248.6 555.72L48.14 516.58" stroke="rgba(145, 175, 238, 1)" stroke-width="1.5"></path><path d="M237.07 682.86L237.07 682.86" stroke="rgba(145, 175, 238, 1)" stroke-width="1.5"></path><path d="M237.07 682.86L353.42 643.24" stroke="rgba(145, 175, 238, 1)" stroke-width="1.5"></path><path d="M237.07 682.86L407.52 535.27" stroke="rgba(145, 175, 238, 1)" stroke-width="1.5"></path><path d="M338.82 353.89L338.82 353.89" stroke="rgba(145, 175, 238, 1)" stroke-width="1.5"></path><path d="M338.82 353.89L407.52 535.27" stroke="rgba(145, 175, 238, 1)" stroke-width="1.5"></path><path d="M338.82 353.89L248.6 555.72" stroke="rgba(145, 175, 238, 1)" stroke-width="1.5"></path><path d="M338.82 353.89L527.98 523.17" stroke="rgba(145, 175, 238, 1)" stroke-width="1.5"></path><path d="M338.82 353.89L353.42 643.24" stroke="rgba(145, 175, 238, 1)" stroke-width="1.5"></path><path d="M407.52 535.27L407.52 535.27" stroke="rgba(145, 175, 238, 1)" stroke-width="1.5"></path><path d="M407.52 535.27L353.42 643.24" stroke="rgba(145, 175, 238, 1)" stroke-width="1.5"></path><path d="M407.52 535.27L527.98 523.17" stroke="rgba(145, 175, 238, 1)" stroke-width="1.5"></path><path d="M407.52 535.27L489.19 640.64" stroke="rgba(145, 175, 238, 1)" stroke-width="1.5"></path><path d="M353.42 643.24L353.42 643.24" stroke="rgba(145, 175, 238, 1)" stroke-width="1.5"></path><path d="M527.98 523.17L527.98 523.17" stroke="rgba(145, 175, 238, 1)" stroke-width="1.5"></path><path d="M527.98 523.17L489.19 640.64" stroke="rgba(145, 175, 238, 1)" stroke-width="1.5"></path><path d="M527.98 523.17L669.94 512.93" stroke="rgba(145, 175, 238, 1)" stroke-width="1.5"></path><path d="M527.98 523.17L657.32 398.84" stroke="rgba(145, 175, 238, 1)" stroke-width="1.5"></path><path d="M527.98 523.17L353.42 643.24" stroke="rgba(145, 175, 238, 1)" stroke-width="1.5"></path><path d="M489.19 640.64L489.19 640.64" stroke="rgba(145, 175, 238, 1)" stroke-width="1.5"></path><path d="M697.69 213.53L697.69 213.53" stroke="rgba(145, 175, 238, 1)" stroke-width="1.5"></path><path d="M697.69 213.53L815.45 252.3" stroke="rgba(145, 175, 238, 1)" stroke-width="1.5"></path><path d="M697.69 213.53L657.32 398.84" stroke="rgba(145, 175, 238, 1)" stroke-width="1.5"></path><path d="M697.69 213.53L669.94 512.93" stroke="rgba(145, 175, 238, 1)" stroke-width="1.5"></path><path d="M697.69 213.53L978.37 342.85" stroke="rgba(145, 175, 238, 1)" stroke-width="1.5"></path><path d="M697.69 213.53L1005.19 251.02" stroke="rgba(145, 175, 238, 1)" stroke-width="1.5"></path><path d="M657.32 398.84L657.32 398.84" stroke="rgba(145, 175, 238, 1)" stroke-width="1.5"></path><path d="M657.32 398.84L669.94 512.93" stroke="rgba(145, 175, 238, 1)" stroke-width="1.5"></path><path d="M657.32 398.84L799.22 538.21" stroke="rgba(145, 175, 238, 1)" stroke-width="1.5"></path><path d="M669.94 512.93L669.94 512.93" stroke="rgba(145, 175, 238, 1)" stroke-width="1.5"></path><path d="M669.94 512.93L799.22 538.21" stroke="rgba(145, 175, 238, 1)" stroke-width="1.5"></path><path d="M669.94 512.93L489.19 640.64" stroke="rgba(145, 175, 238, 1)" stroke-width="1.5"></path><path d="M815.45 252.3L815.45 252.3" stroke="rgba(145, 175, 238, 1)" stroke-width="1.5"></path><path d="M815.45 252.3L978.37 342.85" stroke="rgba(145, 175, 238, 1)" stroke-width="1.5"></path><path d="M799.22 538.21L799.22 538.21" stroke="rgba(145, 175, 238, 1)" stroke-width="1.5"></path><path d="M799.22 538.21L808.8 708.43" stroke="rgba(145, 175, 238, 1)" stroke-width="1.5"></path><path d="M808.8 708.43L808.8 708.43" stroke="rgba(145, 175, 238, 1)" stroke-width="1.5"></path><path d="M808.8 708.43L958.71 654.08" stroke="rgba(145, 175, 238, 1)" stroke-width="1.5"></path><path d="M962.92 -49.12L962.92 -49.12" stroke="rgba(145, 175, 238, 1)" stroke-width="1.5"></path><path d="M962.92 -49.12L1126.75 -108.14" stroke="rgba(145, 175, 238, 1)" stroke-width="1.5"></path><path d="M962.92 -49.12L1116.51 102.07" stroke="rgba(145, 175, 238, 1)" stroke-width="1.5"></path><path d="M962.92 -49.12L1005.19 251.02" stroke="rgba(145, 175, 238, 1)" stroke-width="1.5"></path><path d="M962.92 -49.12L1241.15 71.69" stroke="rgba(145, 175, 238, 1)" stroke-width="1.5"></path><path d="M962.92 -49.12L1278.92 -48.63" stroke="rgba(145, 175, 238, 1)" stroke-width="1.5"></path><path d="M1005.19 251.02L1005.19 251.02" stroke="rgba(145, 175, 238, 1)" stroke-width="1.5"></path><path d="M1005.19 251.02L978.37 342.85" stroke="rgba(145, 175, 238, 1)" stroke-width="1.5"></path><path d="M1005.19 251.02L1152.31 259.41" stroke="rgba(145, 175, 238, 1)" stroke-width="1.5"></path><path d="M1005.19 251.02L1116.51 102.07" stroke="rgba(145, 175, 238, 1)" stroke-width="1.5"></path><path d="M1005.19 251.02L1154.95 363.17" stroke="rgba(145, 175, 238, 1)" stroke-width="1.5"></path><path d="M978.37 342.85L978.37 342.85" stroke="rgba(145, 175, 238, 1)" stroke-width="1.5"></path><path d="M978.37 342.85L1154.95 363.17" stroke="rgba(145, 175, 238, 1)" stroke-width="1.5"></path><path d="M958.71 654.08L958.71 654.08" stroke="rgba(145, 175, 238, 1)" stroke-width="1.5"></path><path d="M958.71 654.08L1088.28 670.89" stroke="rgba(145, 175, 238, 1)" stroke-width="1.5"></path><path d="M958.71 654.08L1089.92 513.86" stroke="rgba(145, 175, 238, 1)" stroke-width="1.5"></path><path d="M958.71 654.08L799.22 538.21" stroke="rgba(145, 175, 238, 1)" stroke-width="1.5"></path><path d="M958.71 654.08L978.37 342.85" stroke="rgba(145, 175, 238, 1)" stroke-width="1.5"></path><path d="M1126.75 -108.14L1126.75 -108.14" stroke="rgba(145, 175, 238, 1)" stroke-width="1.5"></path><path d="M1126.75 -108.14L1278.92 -48.63" stroke="rgba(145, 175, 238, 1)" stroke-width="1.5"></path><path d="M1126.75 -108.14L1116.51 102.07" stroke="rgba(145, 175, 238, 1)" stroke-width="1.5"></path><path d="M1126.75 -108.14L1241.15 71.69" stroke="rgba(145, 175, 238, 1)" stroke-width="1.5"></path><path d="M1116.51 102.07L1116.51 102.07" stroke="rgba(145, 175, 238, 1)" stroke-width="1.5"></path><path d="M1116.51 102.07L1241.15 71.69" stroke="rgba(145, 175, 238, 1)" stroke-width="1.5"></path><path d="M1116.51 102.07L1152.31 259.41" stroke="rgba(145, 175, 238, 1)" stroke-width="1.5"></path><path d="M1152.31 259.41L1152.31 259.41" stroke="rgba(145, 175, 238, 1)" stroke-width="1.5"></path><path d="M1152.31 259.41L1154.95 363.17" stroke="rgba(145, 175, 238, 1)" stroke-width="1.5"></path><path d="M1154.95 363.17L1154.95 363.17" stroke="rgba(145, 175, 238, 1)" stroke-width="1.5"></path><path d="M1154.95 363.17L1262.58 386.16" stroke="rgba(145, 175, 238, 1)" stroke-width="1.5"></path><path d="M1154.95 363.17L1089.92 513.86" stroke="rgba(145, 175, 238, 1)" stroke-width="1.5"></path><path d="M1089.92 513.86L1089.92 513.86" stroke="rgba(145, 175, 238, 1)" stroke-width="1.5"></path><path d="M1089.92 513.86L1088.28 670.89" stroke="rgba(145, 175, 238, 1)" stroke-width="1.5"></path><path d="M1089.92 513.86L1289.73 529.82" stroke="rgba(145, 175, 238, 1)" stroke-width="1.5"></path><path d="M1088.28 670.89L1088.28 670.89" stroke="rgba(145, 175, 238, 1)" stroke-width="1.5"></path><path d="M1278.92 -48.63L1278.92 -48.63" stroke="rgba(145, 175, 238, 1)" stroke-width="1.5"></path><path d="M1278.92 -48.63L1241.15 71.69" stroke="rgba(145, 175, 238, 1)" stroke-width="1.5"></path><path d="M1241.15 71.69L1241.15 71.69" stroke="rgba(145, 175, 238, 1)" stroke-width="1.5"></path><path d="M1241.15 71.69L1301.69 224.67" stroke="rgba(145, 175, 238, 1)" stroke-width="1.5"></path><path d="M1241.15 71.69L1152.31 259.41" stroke="rgba(145, 175, 238, 1)" stroke-width="1.5"></path><path d="M1301.69 224.67L1301.69 224.67" stroke="rgba(145, 175, 238, 1)" stroke-width="1.5"></path><path d="M1301.69 224.67L1413.28 255.06" stroke="rgba(145, 175, 238, 1)" stroke-width="1.5"></path><path d="M1301.69 224.67L1152.31 259.41" stroke="rgba(145, 175, 238, 1)" stroke-width="1.5"></path><path d="M1301.69 224.67L1417.83 339.34" stroke="rgba(145, 175, 238, 1)" stroke-width="1.5"></path><path d="M1262.58 386.16L1262.58 386.16" stroke="rgba(145, 175, 238, 1)" stroke-width="1.5"></path><path d="M1262.58 386.16L1289.73 529.82" stroke="rgba(145, 175, 238, 1)" stroke-width="1.5"></path><path d="M1262.58 386.16L1417.83 339.34" stroke="rgba(145, 175, 238, 1)" stroke-width="1.5"></path><path d="M1262.58 386.16L1301.69 224.67" stroke="rgba(145, 175, 238, 1)" stroke-width="1.5"></path><path d="M1262.58 386.16L1152.31 259.41" stroke="rgba(145, 175, 238, 1)" stroke-width="1.5"></path><path d="M1289.73 529.82L1289.73 529.82" stroke="rgba(145, 175, 238, 1)" stroke-width="1.5"></path><path d="M1289.73 529.82L1284.57 638.9" stroke="rgba(145, 175, 238, 1)" stroke-width="1.5"></path><path d="M1289.73 529.82L1419.46 518.94" stroke="rgba(145, 175, 238, 1)" stroke-width="1.5"></path><path d="M1284.57 638.9L1284.57 638.9" stroke="rgba(145, 175, 238, 1)" stroke-width="1.5"></path><path d="M1284.57 638.9L1414.81 686.58" stroke="rgba(145, 175, 238, 1)" stroke-width="1.5"></path><path d="M1284.57 638.9L1419.46 518.94" stroke="rgba(145, 175, 238, 1)" stroke-width="1.5"></path><path d="M1284.57 638.9L1088.28 670.89" stroke="rgba(145, 175, 238, 1)" stroke-width="1.5"></path><path d="M1284.57 638.9L1089.92 513.86" stroke="rgba(145, 175, 238, 1)" stroke-width="1.5"></path><path d="M1284.57 638.9L1262.58 386.16" stroke="rgba(145, 175, 238, 1)" stroke-width="1.5"></path><path d="M1440.99 -109.96L1440.99 -109.96" stroke="rgba(145, 175, 238, 1)" stroke-width="1.5"></path><path d="M1440.99 -109.96L1539.01 -100.26" stroke="rgba(145, 175, 238, 1)" stroke-width="1.5"></path><path d="M1440.99 -109.96L1278.92 -48.63" stroke="rgba(145, 175, 238, 1)" stroke-width="1.5"></path><path d="M1440.99 -109.96L1460.15 74.2" stroke="rgba(145, 175, 238, 1)" stroke-width="1.5"></path><path d="M1440.99 -109.96L1548.81 103.23" stroke="rgba(145, 175, 238, 1)" stroke-width="1.5"></path><path d="M1440.99 -109.96L1241.15 71.69" stroke="rgba(145, 175, 238, 1)" stroke-width="1.5"></path><path d="M1460.15 74.2L1460.15 74.2" stroke="rgba(145, 175, 238, 1)" stroke-width="1.5"></path><path d="M1460.15 74.2L1548.81 103.23" stroke="rgba(145, 175, 238, 1)" stroke-width="1.5"></path><path d="M1460.15 74.2L1601.53 187.67" stroke="rgba(145, 175, 238, 1)" stroke-width="1.5"></path><path d="M1460.15 74.2L1413.28 255.06" stroke="rgba(145, 175, 238, 1)" stroke-width="1.5"></path><path d="M1413.28 255.06L1413.28 255.06" stroke="rgba(145, 175, 238, 1)" stroke-width="1.5"></path><path d="M1413.28 255.06L1417.83 339.34" stroke="rgba(145, 175, 238, 1)" stroke-width="1.5"></path><path d="M1413.28 255.06L1538.39 405.93" stroke="rgba(145, 175, 238, 1)" stroke-width="1.5"></path><path d="M1413.28 255.06L1262.58 386.16" stroke="rgba(145, 175, 238, 1)" stroke-width="1.5"></path><path d="M1413.28 255.06L1601.53 187.67" stroke="rgba(145, 175, 238, 1)" stroke-width="1.5"></path><path d="M1417.83 339.34L1417.83 339.34" stroke="rgba(145, 175, 238, 1)" stroke-width="1.5"></path><path d="M1417.83 339.34L1538.39 405.93" stroke="rgba(145, 175, 238, 1)" stroke-width="1.5"></path><path d="M1419.46 518.94L1419.46 518.94" stroke="rgba(145, 175, 238, 1)" stroke-width="1.5"></path><path d="M1419.46 518.94L1574.56 540.58" stroke="rgba(145, 175, 238, 1)" stroke-width="1.5"></path><path d="M1414.81 686.58L1414.81 686.58" stroke="rgba(145, 175, 238, 1)" stroke-width="1.5"></path><path d="M1414.81 686.58L1419.46 518.94" stroke="rgba(145, 175, 238, 1)" stroke-width="1.5"></path><path d="M1539.01 -100.26L1539.01 -100.26" stroke="rgba(145, 175, 238, 1)" stroke-width="1.5"></path><path d="M1539.01 -100.26L1460.15 74.2" stroke="rgba(145, 175, 238, 1)" stroke-width="1.5"></path><path d="M1539.01 -100.26L1548.81 103.23" stroke="rgba(145, 175, 238, 1)" stroke-width="1.5"></path><path d="M1539.01 -100.26L1278.92 -48.63" stroke="rgba(145, 175, 238, 1)" stroke-width="1.5"></path><path d="M1548.81 103.23L1548.81 103.23" stroke="rgba(145, 175, 238, 1)" stroke-width="1.5"></path><path d="M1548.81 103.23L1601.53 187.67" stroke="rgba(145, 175, 238, 1)" stroke-width="1.5"></path><path d="M1548.81 103.23L1413.28 255.06" stroke="rgba(145, 175, 238, 1)" stroke-width="1.5"></path><path d="M1601.53 187.67L1601.53 187.67" stroke="rgba(145, 175, 238, 1)" stroke-width="1.5"></path><path d="M1601.53 187.67L1538.39 405.93" stroke="rgba(145, 175, 238, 1)" stroke-width="1.5"></path><path d="M1538.39 405.93L1538.39 405.93" stroke="rgba(145, 175, 238, 1)" stroke-width="1.5"></path><path d="M1538.39 405.93L1574.56 540.58" stroke="rgba(145, 175, 238, 1)" stroke-width="1.5"></path><path d="M1538.39 405.93L1419.46 518.94" stroke="rgba(145, 175, 238, 1)" stroke-width="1.5"></path><path d="M1574.56 540.58L1574.56 540.58" stroke="rgba(145, 175, 238, 1)" stroke-width="1.5"></path><path d="M1574.56 540.58L1593.91 670.21" stroke="rgba(145, 175, 238, 1)" stroke-width="1.5"></path><path d="M1574.56 540.58L1414.81 686.58" stroke="rgba(145, 175, 238, 1)" stroke-width="1.5"></path><path d="M1593.91 670.21L1593.91 670.21" stroke="rgba(145, 175, 238, 1)" stroke-width="1.5"></path><path d="M1593.91 670.21L1414.81 686.58" stroke="rgba(145, 175, 238, 1)" stroke-width="1.5"></path><path d="M1593.91 670.21L1419.46 518.94" stroke="rgba(145, 175, 238, 1)" stroke-width="1.5"></path><path d="M1593.91 670.21L1538.39 405.93" stroke="rgba(145, 175, 238, 1)" stroke-width="1.5"></path><path d="M1593.91 670.21L1284.57 638.9" stroke="rgba(145, 175, 238, 1)" stroke-width="1.5"></path><circle r="5" cx="-57.99" cy="357.46" fill="rgba(145, 175, 238, 1)"></circle><circle r="5" cx="-100.76" cy="533.12" fill="rgba(145, 175, 238, 1)"></circle><circle r="5" cx="-92.97" cy="638.81" fill="rgba(145, 175, 238, 1)"></circle><circle r="5" cx="75.91" cy="367.82" fill="rgba(145, 175, 238, 1)"></circle><circle r="5" cx="48.14" cy="516.58" fill="rgba(145, 175, 238, 1)"></circle><circle r="5" cx="79.65" cy="699.27" fill="rgba(145, 175, 238, 1)"></circle><circle r="5" cx="229.51" cy="338.35" fill="rgba(145, 175, 238, 1)"></circle><circle r="5" cx="248.6" cy="555.72" fill="rgba(145, 175, 238, 1)"></circle><circle r="5" cx="237.07" cy="682.86" fill="rgba(145, 175, 238, 1)"></circle><circle r="5" cx="338.82" cy="353.89" fill="rgba(145, 175, 238, 1)"></circle><circle r="5" cx="407.52" cy="535.27" fill="rgba(145, 175, 238, 1)"></circle><circle r="5" cx="353.42" cy="643.24" fill="rgba(145, 175, 238, 1)"></circle><circle r="5" cx="527.98" cy="523.17" fill="rgba(145, 175, 238, 1)"></circle><circle r="5" cx="489.19" cy="640.64" fill="rgba(145, 175, 238, 1)"></circle><circle r="5" cx="697.69" cy="213.53" fill="rgba(145, 175, 238, 1)"></circle><circle r="5" cx="657.32" cy="398.84" fill="rgba(145, 175, 238, 1)"></circle><circle r="5" cx="669.94" cy="512.93" fill="rgba(145, 175, 238, 1)"></circle><circle r="5" cx="815.45" cy="252.3" fill="rgba(145, 175, 238, 1)"></circle><circle r="5" cx="799.22" cy="538.21" fill="rgba(145, 175, 238, 1)"></circle><circle r="5" cx="808.8" cy="708.43" fill="rgba(145, 175, 238, 1)"></circle><circle r="5" cx="962.92" cy="-49.12" fill="rgba(145, 175, 238, 1)"></circle><circle r="5" cx="1005.19" cy="251.02" fill="rgba(145, 175, 238, 1)"></circle><circle r="5" cx="978.37" cy="342.85" fill="rgba(145, 175, 238, 1)"></circle><circle r="5" cx="958.71" cy="654.08" fill="rgba(145, 175, 238, 1)"></circle><circle r="5" cx="1126.75" cy="-108.14" fill="rgba(145, 175, 238, 1)"></circle><circle r="5" cx="1116.51" cy="102.07" fill="rgba(145, 175, 238, 1)"></circle><circle r="5" cx="1152.31" cy="259.41" fill="rgba(145, 175, 238, 1)"></circle><circle r="5" cx="1154.95" cy="363.17" fill="rgba(145, 175, 238, 1)"></circle><circle r="5" cx="1089.92" cy="513.86" fill="rgba(145, 175, 238, 1)"></circle><circle r="5" cx="1088.28" cy="670.89" fill="rgba(145, 175, 238, 1)"></circle><circle r="5" cx="1278.92" cy="-48.63" fill="rgba(145, 175, 238, 1)"></circle><circle r="5" cx="1241.15" cy="71.69" fill="rgba(145, 175, 238, 1)"></circle><circle r="5" cx="1301.69" cy="224.67" fill="rgba(145, 175, 238, 1)"></circle><circle r="5" cx="1262.58" cy="386.16" fill="rgba(145, 175, 238, 1)"></circle><circle r="5" cx="1289.73" cy="529.82" fill="rgba(145, 175, 238, 1)"></circle><circle r="5" cx="1284.57" cy="638.9" fill="rgba(145, 175, 238, 1)"></circle><circle r="5" cx="1440.99" cy="-109.96" fill="rgba(145, 175, 238, 1)"></circle><circle r="5" cx="1460.15" cy="74.2" fill="rgba(145, 175, 238, 1)"></circle><circle r="5" cx="1413.28" cy="255.06" fill="rgba(145, 175, 238, 1)"></circle><circle r="5" cx="1417.83" cy="339.34" fill="rgba(145, 175, 238, 1)"></circle><circle r="5" cx="1419.46" cy="518.94" fill="rgba(145, 175, 238, 1)"></circle><circle r="5" cx="1414.81" cy="686.58" fill="rgba(145, 175, 238, 1)"></circle><circle r="5" cx="1539.01" cy="-100.26" fill="rgba(145, 175, 238, 1)"></circle><circle r="5" cx="1548.81" cy="103.23" fill="rgba(145, 175, 238, 1)"></circle><circle r="5" cx="1601.53" cy="187.67" fill="rgba(145, 175, 238, 1)"></circle><circle r="5" cx="1538.39" cy="405.93" fill="rgba(145, 175, 238, 1)"></circle><circle r="5" cx="1574.56" cy="540.58" fill="rgba(145, 175, 238, 1)"></circle><circle r="5" cx="1593.91" cy="670.21" fill="rgba(145, 175, 238, 1)"></circle><path d="M509.66 695.39L509.66 695.39" stroke="hsl(225, 6.1%, 16.8%)" stroke-width="1.5"></path><path d="M509.66 695.39L371.16 682.27" stroke="hsl(225, 6.1%, 16.8%)" stroke-width="1.5"></path><path d="M509.66 695.39L699.32 695.47" stroke="hsl(225, 6.1%, 16.8%)" stroke-width="1.5"></path><path d="M509.66 695.39L516.25 501.76" stroke="hsl(225, 6.1%, 16.8%)" stroke-width="1.5"></path><path d="M817.92 522.5L817.92 522.5" stroke="hsl(225, 6.1%, 16.8%)" stroke-width="1.5"></path><path d="M817.92 522.5L941.75 503.08" stroke="hsl(225, 6.1%, 16.8%)" stroke-width="1.5"></path><path d="M817.92 522.5L840 398.34" stroke="hsl(225, 6.1%, 16.8%)" stroke-width="1.5"></path><path d="M817.92 522.5L671.48 551.74" stroke="hsl(225, 6.1%, 16.8%)" stroke-width="1.5"></path><path d="M817.92 522.5L820.98 688.11" stroke="hsl(225, 6.1%, 16.8%)" stroke-width="1.5"></path><path d="M941.75 503.08L941.75 503.08" stroke="hsl(225, 6.1%, 16.8%)" stroke-width="1.5"></path><path d="M941.75 503.08L1006.51 399.31" stroke="hsl(225, 6.1%, 16.8%)" stroke-width="1.5"></path><path d="M941.75 503.08L840 398.34" stroke="hsl(225, 6.1%, 16.8%)" stroke-width="1.5"></path><path d="M941.75 503.08L1088.95 529.03" stroke="hsl(225, 6.1%, 16.8%)" stroke-width="1.5"></path><path d="M1300.3 533.02L1300.3 533.02" stroke="hsl(225, 6.1%, 16.8%)" stroke-width="1.5"></path><path d="M1300.3 533.02L1434.25 504.82" stroke="hsl(225, 6.1%, 16.8%)" stroke-width="1.5"></path><path d="M1300.3 533.02L1283.33 378.33" stroke="hsl(225, 6.1%, 16.8%)" stroke-width="1.5"></path><path d="M1300.3 533.02L1261.4 687.48" stroke="hsl(225, 6.1%, 16.8%)" stroke-width="1.5"></path><path d="M1300.3 533.02L1416.45 643.7" stroke="hsl(225, 6.1%, 16.8%)" stroke-width="1.5"></path><path d="M1391.6 99.84L1391.6 99.84" stroke="hsl(225, 6.1%, 16.8%)" stroke-width="1.5"></path><path d="M1391.6 99.84L1306.87 80.7" stroke="hsl(225, 6.1%, 16.8%)" stroke-width="1.5"></path><path d="M1391.6 99.84L1425.99 212.96" stroke="hsl(225, 6.1%, 16.8%)" stroke-width="1.5"></path><path d="M1391.6 99.84L1311.51 248.23" stroke="hsl(225, 6.1%, 16.8%)" stroke-width="1.5"></path><path d="M1391.6 99.84L1444.12 -81.33" stroke="hsl(225, 6.1%, 16.8%)" stroke-width="1.5"></path><path d="M1587.54 200.73L1587.54 200.73" stroke="hsl(225, 6.1%, 16.8%)" stroke-width="1.5"></path><path d="M1587.54 200.73L1590.37 54.47" stroke="hsl(225, 6.1%, 16.8%)" stroke-width="1.5"></path><path d="M1587.54 200.73L1425.99 212.96" stroke="hsl(225, 6.1%, 16.8%)" stroke-width="1.5"></path><path d="M-101.06 498.27L-101.06 498.27" stroke="hsl(225, 6.1%, 16.8%)" stroke-width="1.5"></path><path d="M-101.06 498.27L-104.64 672.88" stroke="hsl(225, 6.1%, 16.8%)" stroke-width="1.5"></path><path d="M-101.06 498.27L77.81 504.99" stroke="hsl(225, 6.1%, 16.8%)" stroke-width="1.5"></path><path d="M-101.06 498.27L71.66 707.94" stroke="hsl(225, 6.1%, 16.8%)" stroke-width="1.5"></path><path d="M-101.06 498.27L187.97 493.71" stroke="hsl(225, 6.1%, 16.8%)" stroke-width="1.5"></path><path d="M-101.06 498.27L377.81 551.56" stroke="hsl(225, 6.1%, 16.8%)" stroke-width="1.5"></path><path d="M-101.06 498.27L371.16 682.27" stroke="hsl(225, 6.1%, 16.8%)" stroke-width="1.5"></path><path d="M-104.64 672.88L-104.64 672.88" stroke="hsl(225, 6.1%, 16.8%)" stroke-width="1.5"></path><path d="M-104.64 672.88L71.66 707.94" stroke="hsl(225, 6.1%, 16.8%)" stroke-width="1.5"></path><path d="M-104.64 672.88L77.81 504.99" stroke="hsl(225, 6.1%, 16.8%)" stroke-width="1.5"></path><path d="M-104.64 672.88L187.97 493.71" stroke="hsl(225, 6.1%, 16.8%)" stroke-width="1.5"></path><path d="M77.81 504.99L77.81 504.99" stroke="hsl(225, 6.1%, 16.8%)" stroke-width="1.5"></path><path d="M77.81 504.99L187.97 493.71" stroke="hsl(225, 6.1%, 16.8%)" stroke-width="1.5"></path><path d="M77.81 504.99L71.66 707.94" stroke="hsl(225, 6.1%, 16.8%)" stroke-width="1.5"></path><path d="M71.66 707.94L71.66 707.94" stroke="hsl(225, 6.1%, 16.8%)" stroke-width="1.5"></path><path d="M187.97 493.71L187.97 493.71" stroke="hsl(225, 6.1%, 16.8%)" stroke-width="1.5"></path><path d="M187.97 493.71L377.81 551.56" stroke="hsl(225, 6.1%, 16.8%)" stroke-width="1.5"></path><path d="M187.97 493.71L71.66 707.94" stroke="hsl(225, 6.1%, 16.8%)" stroke-width="1.5"></path><path d="M187.97 493.71L371.16 682.27" stroke="hsl(225, 6.1%, 16.8%)" stroke-width="1.5"></path><path d="M377.81 551.56L377.81 551.56" stroke="hsl(225, 6.1%, 16.8%)" stroke-width="1.5"></path><path d="M377.81 551.56L371.16 682.27" stroke="hsl(225, 6.1%, 16.8%)" stroke-width="1.5"></path><path d="M377.81 551.56L516.25 501.76" stroke="hsl(225, 6.1%, 16.8%)" stroke-width="1.5"></path><path d="M377.81 551.56L509.66 695.39" stroke="hsl(225, 6.1%, 16.8%)" stroke-width="1.5"></path><path d="M377.81 551.56L671.48 551.74" stroke="hsl(225, 6.1%, 16.8%)" stroke-width="1.5"></path><path d="M377.81 551.56L77.81 504.99" stroke="hsl(225, 6.1%, 16.8%)" stroke-width="1.5"></path><path d="M371.16 682.27L371.16 682.27" stroke="hsl(225, 6.1%, 16.8%)" stroke-width="1.5"></path><path d="M371.16 682.27L516.25 501.76" stroke="hsl(225, 6.1%, 16.8%)" stroke-width="1.5"></path><path d="M516.25 501.76L516.25 501.76" stroke="hsl(225, 6.1%, 16.8%)" stroke-width="1.5"></path><path d="M516.25 501.76L671.48 551.74" stroke="hsl(225, 6.1%, 16.8%)" stroke-width="1.5"></path><path d="M516.25 501.76L639.82 389.56" stroke="hsl(225, 6.1%, 16.8%)" stroke-width="1.5"></path><path d="M516.25 501.76L699.32 695.47" stroke="hsl(225, 6.1%, 16.8%)" stroke-width="1.5"></path><path d="M639.82 389.56L639.82 389.56" stroke="hsl(225, 6.1%, 16.8%)" stroke-width="1.5"></path><path d="M639.82 389.56L671.48 551.74" stroke="hsl(225, 6.1%, 16.8%)" stroke-width="1.5"></path><path d="M639.82 389.56L840 398.34" stroke="hsl(225, 6.1%, 16.8%)" stroke-width="1.5"></path><path d="M639.82 389.56L817.92 522.5" stroke="hsl(225, 6.1%, 16.8%)" stroke-width="1.5"></path><path d="M639.82 389.56L377.81 551.56" stroke="hsl(225, 6.1%, 16.8%)" stroke-width="1.5"></path><path d="M639.82 389.56L699.32 695.47" stroke="hsl(225, 6.1%, 16.8%)" stroke-width="1.5"></path><path d="M671.48 551.74L671.48 551.74" stroke="hsl(225, 6.1%, 16.8%)" stroke-width="1.5"></path><path d="M671.48 551.74L699.32 695.47" stroke="hsl(225, 6.1%, 16.8%)" stroke-width="1.5"></path><path d="M699.32 695.47L699.32 695.47" stroke="hsl(225, 6.1%, 16.8%)" stroke-width="1.5"></path><path d="M699.32 695.47L820.98 688.11" stroke="hsl(225, 6.1%, 16.8%)" stroke-width="1.5"></path><path d="M840 398.34L840 398.34" stroke="hsl(225, 6.1%, 16.8%)" stroke-width="1.5"></path><path d="M840 398.34L1006.51 399.31" stroke="hsl(225, 6.1%, 16.8%)" stroke-width="1.5"></path><path d="M840 398.34L671.48 551.74" stroke="hsl(225, 6.1%, 16.8%)" stroke-width="1.5"></path><path d="M820.98 688.11L820.98 688.11" stroke="hsl(225, 6.1%, 16.8%)" stroke-width="1.5"></path><path d="M1006.51 399.31L1006.51 399.31" stroke="hsl(225, 6.1%, 16.8%)" stroke-width="1.5"></path><path d="M1006.51 399.31L1088.95 529.03" stroke="hsl(225, 6.1%, 16.8%)" stroke-width="1.5"></path><path d="M1003.84 643.33L1003.84 643.33" stroke="hsl(225, 6.1%, 16.8%)" stroke-width="1.5"></path><path d="M1003.84 643.33L1114.78 691.76" stroke="hsl(225, 6.1%, 16.8%)" stroke-width="1.5"></path><path d="M1003.84 643.33L1088.95 529.03" stroke="hsl(225, 6.1%, 16.8%)" stroke-width="1.5"></path><path d="M1003.84 643.33L941.75 503.08" stroke="hsl(225, 6.1%, 16.8%)" stroke-width="1.5"></path><path d="M1003.84 643.33L820.98 688.11" stroke="hsl(225, 6.1%, 16.8%)" stroke-width="1.5"></path><path d="M1003.84 643.33L817.92 522.5" stroke="hsl(225, 6.1%, 16.8%)" stroke-width="1.5"></path><path d="M1003.84 643.33L1006.51 399.31" stroke="hsl(225, 6.1%, 16.8%)" stroke-width="1.5"></path><path d="M1095.24 209.79L1095.24 209.79" stroke="hsl(225, 6.1%, 16.8%)" stroke-width="1.5"></path><path d="M1095.24 209.79L1006.51 399.31" stroke="hsl(225, 6.1%, 16.8%)" stroke-width="1.5"></path><path d="M1095.24 209.79L1311.51 248.23" stroke="hsl(225, 6.1%, 16.8%)" stroke-width="1.5"></path><path d="M1088.95 529.03L1088.95 529.03" stroke="hsl(225, 6.1%, 16.8%)" stroke-width="1.5"></path><path d="M1114.78 691.76L1114.78 691.76" stroke="hsl(225, 6.1%, 16.8%)" stroke-width="1.5"></path><path d="M1114.78 691.76L1261.4 687.48" stroke="hsl(225, 6.1%, 16.8%)" stroke-width="1.5"></path><path d="M1238.44 -107.4L1238.44 -107.4" stroke="hsl(225, 6.1%, 16.8%)" stroke-width="1.5"></path><path d="M1238.44 -107.4L1306.87 80.7" stroke="hsl(225, 6.1%, 16.8%)" stroke-width="1.5"></path><path d="M1238.44 -107.4L1444.12 -81.33" stroke="hsl(225, 6.1%, 16.8%)" stroke-width="1.5"></path><path d="M1238.44 -107.4L1391.6 99.84" stroke="hsl(225, 6.1%, 16.8%)" stroke-width="1.5"></path><path d="M1238.44 -107.4L1555.95 -46.17" stroke="hsl(225, 6.1%, 16.8%)" stroke-width="1.5"></path><path d="M1238.44 -107.4L1095.24 209.79" stroke="hsl(225, 6.1%, 16.8%)" stroke-width="1.5"></path><path d="M1238.44 -107.4L1311.51 248.23" stroke="hsl(225, 6.1%, 16.8%)" stroke-width="1.5"></path><path d="M1306.87 80.7L1306.87 80.7" stroke="hsl(225, 6.1%, 16.8%)" stroke-width="1.5"></path><path d="M1306.87 80.7L1311.51 248.23" stroke="hsl(225, 6.1%, 16.8%)" stroke-width="1.5"></path><path d="M1306.87 80.7L1425.99 212.96" stroke="hsl(225, 6.1%, 16.8%)" stroke-width="1.5"></path><path d="M1311.51 248.23L1311.51 248.23" stroke="hsl(225, 6.1%, 16.8%)" stroke-width="1.5"></path><path d="M1311.51 248.23L1425.99 212.96" stroke="hsl(225, 6.1%, 16.8%)" stroke-width="1.5"></path><path d="M1311.51 248.23L1283.33 378.33" stroke="hsl(225, 6.1%, 16.8%)" stroke-width="1.5"></path><path d="M1283.33 378.33L1283.33 378.33" stroke="hsl(225, 6.1%, 16.8%)" stroke-width="1.5"></path><path d="M1283.33 378.33L1411.38 397.66" stroke="hsl(225, 6.1%, 16.8%)" stroke-width="1.5"></path><path d="M1261.4 687.48L1261.4 687.48" stroke="hsl(225, 6.1%, 16.8%)" stroke-width="1.5"></path><path d="M1261.4 687.48L1416.45 643.7" stroke="hsl(225, 6.1%, 16.8%)" stroke-width="1.5"></path><path d="M1261.4 687.48L1088.95 529.03" stroke="hsl(225, 6.1%, 16.8%)" stroke-width="1.5"></path><path d="M1444.12 -81.33L1444.12 -81.33" stroke="hsl(225, 6.1%, 16.8%)" stroke-width="1.5"></path><path d="M1444.12 -81.33L1555.95 -46.17" stroke="hsl(225, 6.1%, 16.8%)" stroke-width="1.5"></path><path d="M1444.12 -81.33L1590.37 54.47" stroke="hsl(225, 6.1%, 16.8%)" stroke-width="1.5"></path><path d="M1444.12 -81.33L1306.87 80.7" stroke="hsl(225, 6.1%, 16.8%)" stroke-width="1.5"></path><path d="M1444.12 -81.33L1425.99 212.96" stroke="hsl(225, 6.1%, 16.8%)" stroke-width="1.5"></path><path d="M1425.99 212.96L1425.99 212.96" stroke="hsl(225, 6.1%, 16.8%)" stroke-width="1.5"></path><path d="M1425.99 212.96L1411.38 397.66" stroke="hsl(225, 6.1%, 16.8%)" stroke-width="1.5"></path><path d="M1411.38 397.66L1411.38 397.66" stroke="hsl(225, 6.1%, 16.8%)" stroke-width="1.5"></path><path d="M1411.38 397.66L1434.25 504.82" stroke="hsl(225, 6.1%, 16.8%)" stroke-width="1.5"></path><path d="M1411.38 397.66L1545.07 411.63" stroke="hsl(225, 6.1%, 16.8%)" stroke-width="1.5"></path><path d="M1411.38 397.66L1300.3 533.02" stroke="hsl(225, 6.1%, 16.8%)" stroke-width="1.5"></path><path d="M1434.25 504.82L1434.25 504.82" stroke="hsl(225, 6.1%, 16.8%)" stroke-width="1.5"></path><path d="M1434.25 504.82L1416.45 643.7" stroke="hsl(225, 6.1%, 16.8%)" stroke-width="1.5"></path><path d="M1416.45 643.7L1416.45 643.7" stroke="hsl(225, 6.1%, 16.8%)" stroke-width="1.5"></path><path d="M1416.45 643.7L1567.95 642.91" stroke="hsl(225, 6.1%, 16.8%)" stroke-width="1.5"></path><path d="M1555.95 -46.17L1555.95 -46.17" stroke="hsl(225, 6.1%, 16.8%)" stroke-width="1.5"></path><path d="M1555.95 -46.17L1590.37 54.47" stroke="hsl(225, 6.1%, 16.8%)" stroke-width="1.5"></path><path d="M1590.37 54.47L1590.37 54.47" stroke="hsl(225, 6.1%, 16.8%)" stroke-width="1.5"></path><path d="M1545.07 411.63L1545.07 411.63" stroke="hsl(225, 6.1%, 16.8%)" stroke-width="1.5"></path><path d="M1545.07 411.63L1434.25 504.82" stroke="hsl(225, 6.1%, 16.8%)" stroke-width="1.5"></path><path d="M1545.07 411.63L1593.68 550.5" stroke="hsl(225, 6.1%, 16.8%)" stroke-width="1.5"></path><path d="M1545.07 411.63L1587.54 200.73" stroke="hsl(225, 6.1%, 16.8%)" stroke-width="1.5"></path><path d="M1593.68 550.5L1593.68 550.5" stroke="hsl(225, 6.1%, 16.8%)" stroke-width="1.5"></path><path d="M1593.68 550.5L1567.95 642.91" stroke="hsl(225, 6.1%, 16.8%)" stroke-width="1.5"></path><path d="M1593.68 550.5L1434.25 504.82" stroke="hsl(225, 6.1%, 16.8%)" stroke-width="1.5"></path><path d="M1593.68 550.5L1416.45 643.7" stroke="hsl(225, 6.1%, 16.8%)" stroke-width="1.5"></path><path d="M1593.68 550.5L1411.38 397.66" stroke="hsl(225, 6.1%, 16.8%)" stroke-width="1.5"></path><path d="M1593.68 550.5L1300.3 533.02" stroke="hsl(225, 6.1%, 16.8%)" stroke-width="1.5"></path><path d="M1567.95 642.91L1567.95 642.91" stroke="hsl(225, 6.1%, 16.8%)" stroke-width="1.5"></path><path d="M1567.95 642.91L1434.25 504.82" stroke="hsl(225, 6.1%, 16.8%)" stroke-width="1.5"></path><circle r="25" cx="509.66" cy="695.39" fill="url(&quot;#SvgjsRadialGradient1007&quot;)"></circle><circle r="25" cx="817.92" cy="522.5" fill="url(&quot;#SvgjsRadialGradient1007&quot;)"></circle><circle r="25" cx="941.75" cy="503.08" fill="url(&quot;#SvgjsRadialGradient1007&quot;)"></circle><circle r="25" cx="1300.3" cy="533.02" fill="url(&quot;#SvgjsRadialGradient1007&quot;)"></circle><circle r="25" cx="1391.6" cy="99.84" fill="url(&quot;#SvgjsRadialGradient1007&quot;)"></circle><circle r="25" cx="1587.54" cy="200.73" fill="url(&quot;#SvgjsRadialGradient1007&quot;)"></circle><circle r="5" cx="-101.06" cy="498.27" fill="#8f9091"></circle><circle r="5" cx="-104.64" cy="672.88" fill="#8f9091"></circle><circle r="5" cx="77.81" cy="504.99" fill="#8f9091"></circle><circle r="5" cx="71.66" cy="707.94" fill="#8f9091"></circle><circle r="5" cx="187.97" cy="493.71" fill="#8f9091"></circle><circle r="5" cx="377.81" cy="551.56" fill="#8f9091"></circle><circle r="5" cx="371.16" cy="682.27" fill="#8f9091"></circle><circle r="5" cx="516.25" cy="501.76" fill="#8f9091"></circle><circle r="5" cx="639.82" cy="389.56" fill="#8f9091"></circle><circle r="5" cx="671.48" cy="551.74" fill="#8f9091"></circle><circle r="5" cx="699.32" cy="695.47" fill="#8f9091"></circle><circle r="5" cx="840" cy="398.34" fill="#8f9091"></circle><circle r="5" cx="820.98" cy="688.11" fill="#8f9091"></circle><circle r="5" cx="1006.51" cy="399.31" fill="#8f9091"></circle><circle r="5" cx="1003.84" cy="643.33" fill="#8f9091"></circle><circle r="5" cx="1095.24" cy="209.79" fill="#8f9091"></circle><circle r="5" cx="1088.95" cy="529.03" fill="#8f9091"></circle><circle r="5" cx="1114.78" cy="691.76" fill="#8f9091"></circle><circle r="5" cx="1238.44" cy="-107.4" fill="#8f9091"></circle><circle r="5" cx="1306.87" cy="80.7" fill="#8f9091"></circle><circle r="5" cx="1311.51" cy="248.23" fill="#8f9091"></circle><circle r="5" cx="1283.33" cy="378.33" fill="#8f9091"></circle><circle r="5" cx="1261.4" cy="687.48" fill="#8f9091"></circle><circle r="5" cx="1444.12" cy="-81.33" fill="#8f9091"></circle><circle r="5" cx="1425.99" cy="212.96" fill="#8f9091"></circle><circle r="5" cx="1411.38" cy="397.66" fill="#8f9091"></circle><circle r="5" cx="1434.25" cy="504.82" fill="#8f9091"></circle><circle r="5" cx="1416.45" cy="643.7" fill="#8f9091"></circle><circle r="5" cx="1555.95" cy="-46.17" fill="#8f9091"></circle><circle r="5" cx="1590.37" cy="54.47" fill="#8f9091"></circle><circle r="5" cx="1545.07" cy="411.63" fill="#8f9091"></circle><circle r="5" cx="1593.68" cy="550.5" fill="#8f9091"></circle><circle r="5" cx="1567.95" cy="642.91" fill="#8f9091"></circle></g><defs><mask id="SvgjsMask1006"><rect width="1440" height="560" fill="#ffffff"></rect></mask><radialGradient id="SvgjsRadialGradient1007"><stop stop-color="#ffffff" offset="0.1"></stop><stop stop-color="rgba(31, 32, 35, 1)" offset="0.2"></stop><stop stop-color="rgba(31, 32, 35, 0)" offset="1"></stop></radialGradient></defs></svg>