<?xml version="1.0" standalone="no"?>
        <!DOCTYPE svg PUBLIC "-//W3C//DTD SVG 1.1//EN" 
        "http://www.w3.org/Graphics/SVG/1.1/DTD/svg11.dtd"> <svg xmlns="http://www.w3.org/2000/svg" xmlns:xlink="http://www.w3.org/1999/xlink" width="200" zoomAndPan="magnify" viewBox="0 0 30 30.000001" height="200" preserveAspectRatio="xMidYMid meet" version="1.0" id="IconChangeColor"><defs><clipPath id="id1"><path d="M 3.386719 5.878906 L 27.339844 5.878906 L 27.339844 23.296875 L 3.386719 23.296875 Z M 3.386719 5.878906 " clip-rule="nonzero" id="mainIconPathAttribute"></path></clipPath><clipPath id="id2"><path d="M 3.386719 11 L 27.339844 11 L 27.339844 18 L 3.386719 18 Z M 3.386719 11 " clip-rule="nonzero" id="mainIconPathAttribute"></path></clipPath></defs><g clip-path="url(#id1)"><path fill="rgb(45.878601%, 66.668701%, 85.879517%)" d="M 27.332031 20.617188 C 27.332031 22.097656 26.140625 23.296875 24.671875 23.296875 L 6.054688 23.296875 C 4.585938 23.296875 3.394531 22.097656 3.394531 20.617188 L 3.394531 8.558594 C 3.394531 7.078125 4.585938 5.878906 6.054688 5.878906 L 24.671875 5.878906 C 26.140625 5.878906 27.332031 7.078125 27.332031 8.558594 Z M 27.332031 20.617188 " fill-opacity="1" fill-rule="nonzero" id="mainIconPathAttribute"></path></g><g clip-path="url(#id2)"><path fill="rgb(93.328857%, 93.328857%, 93.328857%)" d="M 3.394531 11.238281 L 27.332031 11.238281 L 27.332031 17.9375 L 3.394531 17.9375 Z M 3.394531 11.238281 " fill-opacity="1" fill-rule="nonzero" id="mainIconPathAttribute"></path></g><path fill="rgb(98.81897%, 74.899292%, 28.62854%)" d="M 15.363281 11.238281 L 15.6875 12.945312 L 16.636719 11.492188 L 16.285156 13.195312 L 17.714844 12.21875 L 16.746094 13.65625 L 18.433594 13.304688 L 16.992188 14.261719 L 18.6875 14.585938 L 16.992188 14.914062 L 18.433594 15.871094 L 16.746094 15.515625 L 17.714844 16.957031 L 16.285156 15.980469 L 16.636719 17.679688 L 15.6875 16.230469 L 15.363281 17.9375 L 15.039062 16.230469 L 14.089844 17.679688 L 14.4375 15.980469 L 13.011719 16.957031 L 13.980469 15.515625 L 12.292969 15.871094 L 13.734375 14.914062 L 12.039062 14.585938 L 13.734375 14.261719 L 12.292969 13.304688 L 13.980469 13.65625 L 13.011719 12.21875 L 14.4375 13.195312 L 14.089844 11.492188 L 15.039062 12.945312 Z M 15.363281 11.238281 " fill-opacity="1" fill-rule="nonzero" id="mainIconPathAttribute"></path><path fill="rgb(51.759338%, 20.779419%, 6.669617%)" d="M 15.363281 12.128906 L 15.523438 12.976562 L 15.601562 13.382812 L 15.828125 13.035156 L 16.296875 12.316406 L 16.125 13.160156 L 16.039062 13.566406 L 16.378906 13.332031 L 17.089844 12.847656 L 16.609375 13.5625 L 16.378906 13.90625 L 16.777344 13.820312 L 17.617188 13.648438 L 16.902344 14.121094 L 16.558594 14.347656 L 16.960938 14.425781 L 17.804688 14.585938 L 16.960938 14.75 L 16.558594 14.828125 L 16.902344 15.054688 L 17.617188 15.527344 L 16.777344 15.351562 L 16.375 15.269531 L 16.605469 15.609375 L 17.085938 16.324219 L 16.378906 15.839844 L 16.039062 15.609375 L 16.121094 16.011719 L 16.296875 16.859375 L 15.824219 16.136719 L 15.601562 15.792969 L 15.523438 16.199219 L 15.363281 17.046875 L 15.203125 16.199219 L 15.125 15.792969 L 14.898438 16.136719 L 14.429688 16.859375 L 14.601562 16.011719 L 14.683594 15.609375 L 14.34375 15.839844 L 13.636719 16.324219 L 14.117188 15.609375 L 14.347656 15.269531 L 13.945312 15.351562 L 13.109375 15.527344 L 13.824219 15.054688 L 14.164062 14.828125 L 13.761719 14.75 L 12.921875 14.585938 L 13.765625 14.425781 L 14.167969 14.347656 L 13.824219 14.121094 L 13.109375 13.644531 L 13.945312 13.820312 L 14.347656 13.902344 L 14.117188 13.5625 L 13.636719 12.847656 L 14.34375 13.332031 L 14.683594 13.566406 L 14.601562 13.160156 L 14.429688 12.316406 L 14.898438 13.035156 L 15.125 13.382812 L 15.203125 12.976562 L 15.363281 12.128906 M 15.363281 11.238281 L 15.039062 12.945312 L 14.089844 11.492188 L 14.4375 13.195312 L 13.011719 12.21875 L 13.980469 13.65625 L 12.292969 13.304688 L 13.734375 14.261719 L 12.039062 14.585938 L 13.734375 14.914062 L 12.292969 15.871094 L 13.980469 15.515625 L 13.011719 16.957031 L 14.4375 15.980469 L 14.089844 17.679688 L 15.039062 16.230469 L 15.363281 17.9375 L 15.6875 16.230469 L 16.636719 17.679688 L 16.285156 15.980469 L 17.714844 16.957031 L 16.746094 15.515625 L 18.433594 15.871094 L 16.992188 14.914062 L 18.6875 14.585938 L 16.992188 14.261719 L 18.433594 13.304688 L 16.746094 13.65625 L 17.714844 12.21875 L 16.285156 13.195312 L 16.636719 11.492188 L 15.6875 12.945312 Z M 16.636719 11.492188 L 16.640625 11.492188 Z M 17.714844 12.21875 Z M 18.433594 13.304688 L 18.4375 13.304688 Z M 18.433594 13.304688 " fill-opacity="1" fill-rule="nonzero" id="mainIconPathAttribute"></path><path fill="rgb(98.81897%, 74.899292%, 28.62854%)" d="M 16.691406 14.585938 C 16.691406 14.765625 16.660156 14.933594 16.589844 15.101562 C 16.523438 15.265625 16.429688 15.410156 16.304688 15.535156 C 16.179688 15.660156 16.035156 15.757812 15.871094 15.824219 C 15.707031 15.894531 15.539062 15.925781 15.363281 15.925781 C 15.1875 15.925781 15.015625 15.894531 14.855469 15.824219 C 14.691406 15.757812 14.546875 15.660156 14.421875 15.535156 C 14.296875 15.410156 14.203125 15.265625 14.132812 15.101562 C 14.066406 14.933594 14.03125 14.765625 14.03125 14.585938 C 14.03125 14.410156 14.066406 14.238281 14.132812 14.074219 C 14.203125 13.910156 14.296875 13.765625 14.421875 13.640625 C 14.546875 13.515625 14.691406 13.417969 14.855469 13.347656 C 15.015625 13.28125 15.1875 13.246094 15.363281 13.246094 C 15.539062 13.246094 15.707031 13.28125 15.871094 13.347656 C 16.035156 13.417969 16.179688 13.515625 16.304688 13.640625 C 16.429688 13.765625 16.523438 13.910156 16.589844 14.074219 C 16.660156 14.238281 16.691406 14.410156 16.691406 14.585938 Z M 16.691406 14.585938 " fill-opacity="1" fill-rule="nonzero" id="mainIconPathAttribute"></path><path fill="rgb(51.759338%, 20.779419%, 6.669617%)" d="M 15.363281 16.011719 C 14.582031 16.011719 13.949219 15.371094 13.949219 14.585938 C 13.949219 13.800781 14.582031 13.164062 15.363281 13.164062 C 16.140625 13.164062 16.777344 13.800781 16.777344 14.585938 C 16.777344 15.371094 16.140625 16.011719 15.363281 16.011719 Z M 15.363281 13.332031 C 14.675781 13.332031 14.117188 13.894531 14.117188 14.585938 C 14.117188 15.28125 14.675781 15.84375 15.363281 15.84375 C 16.050781 15.84375 16.609375 15.28125 16.609375 14.585938 C 16.609375 13.894531 16.050781 13.332031 15.363281 13.332031 Z M 15.363281 13.332031 " fill-opacity="1" fill-rule="nonzero" id="mainIconPathAttribute"></path><path fill="rgb(75.689697%, 39.608765%, 25.099182%)" d="M 15.230469 14.433594 C 15.230469 14.539062 15.058594 14.621094 14.84375 14.621094 C 14.628906 14.621094 14.453125 14.539062 14.453125 14.433594 C 14.453125 14.332031 14.628906 14.246094 14.84375 14.246094 C 15.058594 14.246094 15.230469 14.332031 15.230469 14.433594 Z M 16.261719 14.417969 C 16.261719 14.3125 16.085938 14.222656 15.867188 14.222656 C 15.648438 14.222656 15.472656 14.3125 15.472656 14.417969 C 15.472656 14.527344 15.648438 14.613281 15.867188 14.613281 C 16.085938 14.613281 16.261719 14.527344 16.261719 14.417969 Z M 16.261719 14.417969 " fill-opacity="1" fill-rule="nonzero" id="mainIconPathAttribute"></path><path fill="rgb(92.939758%, 52.549744%, 38.42926%)" d="M 15.003906 15.171875 C 15.003906 15.089844 15.167969 15.019531 15.371094 15.019531 C 15.570312 15.019531 15.734375 15.085938 15.734375 15.171875 C 15.734375 15.257812 15.570312 15.324219 15.371094 15.324219 C 15.167969 15.324219 15.003906 15.257812 15.003906 15.171875 Z M 15.003906 15.171875 " fill-opacity="1" fill-rule="nonzero" id="mainIconPathAttribute"></path></svg> 